# xmcd CD database file
#
# Track frame offsets:
#	150
#	19691
#	44483
#	63008
#	80957
#	102454
#	126936
#	150143
#	169714
#
# Disc length: 2549 seconds
#
# Revision: 0
# Processed by: cddbd v1.5.2PL0 Copyright (c) Steve Scherf et al.
# Submitted via: CDex 1.51
#
DISCID=6b09f309
DTITLE=Kevin Kern - Asia Concert [CD1)
DYEAR=2004
DGENRE=New Age
TTITLE0=The Touch Of Love
TTITLE1=Cauldron Of Healing
TTITLE2=A Million Stars
TTITLE3=Dance Of The Dragonfly
TTITLE4=Sundial Dreams
TTITLE5=Above The Clouds
TTITLE6=Children At Play
TTITLE7=The Way Of The Stream
TTITLE8=Through The Veil
EXTD=YEAR: 2004
EXTT0=
EXTT1=
EXTT2=
EXTT3=
EXTT4=
EXTT5=
EXTT6=
EXTT7=
EXTT8=
PLAYORDER=
